<svg aria-hidden="true" style="position:absolute;width:0;height:0;overflow:hidden" xmlns="http://www.w3.org/2000/svg">
    <defs>
        <symbol id="exit" viewBox="0 0 11 11">
            <path d="M11 1.10786L9.89214 0L5.5 4.39214L1.10786 0L0 1.10786L4.39214 5.5L0 9.89214L1.10786 11L5.5 6.60786L9.89214 11L11 9.89214L6.60786 5.5L11 1.10786Z"/>
        </symbol>
        <symbol id="man" viewBox="0 0 18 18">
            <path d="M9 9C10.6575 9 12 7.6575 12 6C12 4.3425 10.6575 3 9 3C7.3425 3 6 4.3425 6 6C6 7.6575 7.3425 9 9 9ZM9 10.5C6.9975 10.5 3 11.505 3 13.5V14.25C3 14.6625 3.3375 15 3.75 15H14.25C14.6625 15 15 14.6625 15 14.25V13.5C15 11.505 11.0025 10.5 9 10.5Z"/>
        </symbol>
        <symbol id="telephone" viewBox="0 0 18 18">
            <path d="M13.996 11.1226L12.1579 10.9127C11.7164 10.8621 11.2822 11.0141 10.971 11.3252L9.63945 12.6568C7.59144 11.6147 5.91251 9.94301 4.87041 7.88775L6.20922 6.54894C6.5204 6.23775 6.67237 5.80355 6.62171 5.3621L6.41185 3.53842C6.325 2.8075 5.70988 2.2575 4.97173 2.2575H3.71976C2.902 2.2575 2.22175 2.93776 2.2724 3.75552C2.65595 9.93577 7.59868 14.8713 13.7717 15.2548C14.5894 15.3055 15.2697 14.6252 15.2697 13.8075V12.5555C15.2769 11.8246 14.7269 11.2095 13.996 11.1226Z"/>
        </symbol>
        <symbol id="email" viewBox="0 0 18 18">
            <path d="M15 3H3C2.175 3 1.5075 3.675 1.5075 4.5L1.5 13.5C1.5 14.325 2.175 15 3 15H15C15.825 15 16.5 14.325 16.5 13.5V4.5C16.5 3.675 15.825 3 15 3ZM14.7 6.1875L9.3975 9.5025C9.1575 9.6525 8.8425 9.6525 8.6025 9.5025L3.3 6.1875C3.1125 6.0675 3 5.865 3 5.6475C3 5.145 3.5475 4.845 3.975 5.1075L9 8.25L14.025 5.1075C14.4525 4.845 15 5.145 15 5.6475C15 5.865 14.8875 6.0675 14.7 6.1875Z"/>
        </symbol>
        <symbol id="arrow" viewBox="0 0 14 17">
            <path d="M0 7.72559C0 7.34589 0.282154 7.0321 0.648229 6.98243L0.75 6.97559L15.75 6.97559C16.1642 6.97559 16.5 7.31137 16.5 7.72559C16.5 8.10528 16.2178 8.41908 15.8518 8.46874L15.75 8.47559L0.75 8.47559C0.335786 8.47559 0 8.1398 0 7.72559Z"/>
            <path d="M9.17101 2.23271C8.87749 1.94045 8.87646 1.46558 9.16872 1.17206C9.43442 0.905218 9.85103 0.880116 10.1451 1.09734L10.2294 1.16977L16.2794 7.19377C16.547 7.46026 16.5714 7.87837 16.3524 8.17245L16.2794 8.25667L10.2294 14.2817C9.93593 14.574 9.46105 14.573 9.16877 14.2795C8.90305 14.0127 8.87971 13.5959 9.09817 13.3028L9.17096 13.2188L14.687 7.72494L9.17101 2.23271Z"/>
        </symbol>
        <symbol id="logo" viewBox="0 0 218 50">
            <path d="M178.72 34.5106H184.133C187.4 34.5106 188.908 32.8249 188.908 30.523C188.908 28.2136 187.378 26.825 185.9 26.721V26.6022C187.259 26.2384 188.314 25.1839 188.314 23.2829C188.314 20.9958 186.821 19.3028 183.851 19.3028H178.72V34.5106ZM180.108 33.263V27.4042H184.192C186.235 27.4042 187.579 28.7854 187.579 30.523C187.579 32.0972 186.48 33.263 184.133 33.263H180.108ZM180.108 26.1715V20.5503H183.851C185.93 20.5503 186.985 21.6716 186.985 23.2829C186.985 24.9537 185.774 26.1715 183.977 26.1715H180.108ZM192.26 19.3028H190.938V34.5106H192.26V19.3028ZM199.145 34.7482C202.101 34.7482 204.165 32.3348 204.165 28.8596C204.165 25.3621 202.101 22.9488 199.145 22.9488C196.19 22.9488 194.125 25.3621 194.125 28.8596C194.125 32.3348 196.19 34.7482 199.145 34.7482ZM199.145 33.5378C196.776 33.5378 195.455 31.4141 195.455 28.8596C195.455 26.3052 196.776 24.1517 199.145 24.1517C201.514 24.1517 202.836 26.3052 202.836 28.8596C202.836 31.4141 201.514 33.5378 199.145 33.5378ZM210.372 39.0254C213.075 39.0254 215.08 37.7036 215.08 34.8076V23.1047H213.788V25.2805H213.655C213.187 24.2557 212.244 22.9488 210.15 22.9488C207.328 22.9488 205.434 25.3102 205.434 28.7779C205.434 32.2754 207.395 34.3917 210.127 34.3917C212.177 34.3917 213.179 33.2036 213.632 32.1566H213.751V34.7259C213.751 36.8496 212.392 37.8373 210.372 37.8373C208.419 37.8373 207.484 36.8942 207.001 36.0254L205.917 36.7383C206.585 38.0452 208.041 39.0254 210.372 39.0254ZM210.283 33.1814C208.018 33.1814 206.764 31.3695 206.764 28.7557C206.764 26.1864 207.996 24.1517 210.283 24.1517C212.518 24.1517 213.773 26.0824 213.773 28.7557C213.773 31.5106 212.481 33.1814 210.283 33.1814Z" fill="#413E52"/>
            <path d="M56.5913 19.2147H62.1784V34.2828H65.9922V19.2147H71.5792V16.0335H56.5913V19.2147ZM76.9743 34.5502C80.3604 34.5502 82.6416 32.9017 83.1762 30.3621L79.6654 30.1304C79.2822 31.173 78.302 31.7165 77.0367 31.7165C75.1387 31.7165 73.9357 30.4601 73.9357 28.4195V28.4106H83.2564V27.3681C83.2564 22.7166 80.4406 20.4176 76.8228 20.4176C72.7951 20.4176 70.1843 23.278 70.1843 27.5017C70.1843 31.8413 72.7595 34.5502 76.9743 34.5502ZM73.9357 26.0582C74.0159 24.4988 75.201 23.2513 76.8852 23.2513C78.5337 23.2513 79.6743 24.4275 79.6832 26.0582H73.9357ZM90.6631 34.5502C94.3076 34.5502 96.5977 32.4116 96.7759 29.2661H93.1937C92.971 30.7274 92.0086 31.5472 90.7076 31.5472C88.9344 31.5472 87.7849 30.0591 87.7849 27.4393C87.7849 24.8552 88.9433 23.376 90.7076 23.376C92.0977 23.376 92.9888 24.2938 93.1937 25.6572H96.7759C96.6155 22.4938 94.2185 20.4176 90.6453 20.4176C86.4928 20.4176 83.9265 23.2958 83.9265 27.4928C83.9265 31.6541 86.4483 34.5502 90.6631 34.5502ZM101.748 26.37C101.757 24.6057 102.835 23.5721 104.385 23.5721C105.927 23.5721 106.836 24.5611 106.827 26.2453V34.2828H110.623V25.5681C110.632 22.3602 108.743 20.4176 105.891 20.4176C103.815 20.4176 102.425 21.3978 101.801 23.0107H101.641V16.0335H97.9517V34.2828H101.748V26.37ZM128.529 22.4226C128.021 18.2077 124.831 15.784 120.607 15.784C115.786 15.784 112.106 19.1879 112.106 25.1582C112.106 31.1106 115.724 34.5323 120.607 34.5323C125.285 34.5323 128.11 31.4225 128.529 28.0631L124.626 28.0453C124.26 29.9967 122.728 31.1195 120.669 31.1195C117.898 31.1195 116.018 29.0611 116.018 25.1582C116.018 21.3622 117.871 19.1968 120.696 19.1968C122.808 19.1968 124.332 20.4176 124.626 22.4226H128.529ZM138.747 28.4552C138.756 30.2908 137.499 31.2532 136.136 31.2532C134.701 31.2532 133.774 30.2462 133.766 28.6334V20.5958H129.97V29.3106C129.978 32.5096 131.85 34.4611 134.603 34.4611C136.662 34.4611 138.141 33.4007 138.756 31.7967H138.898V34.2828H142.543V20.5958H138.747V28.4552ZM150.562 34.5502C153.948 34.5502 156.229 32.9017 156.764 30.3621L153.253 30.1304C152.87 31.173 151.89 31.7165 150.624 31.7165C148.726 31.7165 147.523 30.4601 147.523 28.4195V28.4106H156.844V27.3681C156.844 22.7166 154.028 20.4176 150.41 20.4176C146.383 20.4176 143.772 23.278 143.772 27.5017C143.772 31.8413 146.347 34.5502 150.562 34.5502ZM147.523 26.0582C147.604 24.4988 148.789 23.2513 150.473 23.2513C152.121 23.2513 153.262 24.4275 153.271 26.0582H147.523ZM169.455 24.4988C169.116 21.977 167.084 20.4176 163.627 20.4176C160.125 20.4176 157.817 22.0394 157.826 24.677C157.817 26.7265 159.109 28.0542 161.782 28.5888L164.153 29.0611C165.347 29.3017 165.89 29.7383 165.908 30.4245C165.89 31.2353 165.008 31.8145 163.68 31.8145C162.326 31.8145 161.426 31.2353 161.194 30.1215L157.461 30.3175C157.817 32.9373 160.045 34.5502 163.672 34.5502C167.218 34.5502 169.758 32.7413 169.767 30.0413C169.758 28.0631 168.466 26.878 165.81 26.3344L163.333 25.8354C162.059 25.5592 161.586 25.1225 161.595 24.4631C161.586 23.6433 162.513 23.1087 163.689 23.1087C165.008 23.1087 165.792 23.8305 165.979 24.7126L169.455 24.4988Z" fill="#413E52"/>
            <path d="M30.7002 5.14805C21.2618 2.85667 3.08772 18.5144 3.04883 30.1429C3.00248 44.002 23.7401 50.0429 33.822 44.206C43.9038 38.369 40.1387 7.43943 30.7002 5.14805Z" fill="#5C5CFF"/>
            <path d="M33.362 20.1825C33.362 24.0676 30.2125 27.217 26.3275 27.217C22.4424 27.217 19.293 24.0676 19.293 20.1825C19.293 16.2975 22.4424 13.148 26.3275 13.148C30.2125 13.148 33.362 16.2975 33.362 20.1825Z" fill="white"/>
        </symbol>
        <symbol id="footer__logo" viewBox="0 0 218 50">
            <path d="M30.7 5.02869C21.2615 2.73731 3.08747 18.3951 3.04858 30.0236C3.00223 43.8827 23.7399 49.9236 33.8217 44.0866C43.9035 38.2496 40.1385 7.32007 30.7 5.02869Z" fill="#ABABFA"/>
<path d="M33.3622 20.0633C33.3622 23.9484 30.2128 27.0978 26.3277 27.0978C22.4427 27.0978 19.2932 23.9484 19.2932 20.0633C19.2932 16.1783 22.4427 13.0288 26.3277 13.0288C30.2128 13.0288 33.3622 16.1783 33.3622 20.0633Z" fill="#111131"/>
<path d="M181.886 34.2434H187.3C190.567 34.2434 192.075 32.5578 192.075 30.2558C192.075 27.9464 190.545 26.5578 189.067 26.4539V26.3351C190.426 25.9712 191.48 24.9168 191.48 23.0158C191.48 20.7287 189.988 19.0356 187.018 19.0356H181.886V34.2434ZM183.275 32.9959V27.137H187.359C189.401 27.137 190.745 28.5182 190.745 30.2558C190.745 31.8301 189.646 32.9959 187.3 32.9959H183.275ZM183.275 25.9044V20.2831H187.018C189.097 20.2831 190.151 21.4044 190.151 23.0158C190.151 24.6866 188.941 25.9044 187.144 25.9044H183.275ZM195.427 19.0356H194.105V34.2434H195.427V19.0356ZM202.312 34.481C205.267 34.481 207.332 32.0677 207.332 28.5925C207.332 25.095 205.267 22.6816 202.312 22.6816C199.356 22.6816 197.292 25.095 197.292 28.5925C197.292 32.0677 199.356 34.481 202.312 34.481ZM202.312 33.2706C199.943 33.2706 198.621 31.1469 198.621 28.5925C198.621 26.038 199.943 23.8846 202.312 23.8846C204.681 23.8846 206.002 26.038 206.002 28.5925C206.002 31.1469 204.681 33.2706 202.312 33.2706ZM213.539 38.7582C216.242 38.7582 218.247 37.4364 218.247 34.5404V22.8376H216.955V25.0133H216.821C216.353 23.9886 215.41 22.6816 213.316 22.6816C210.495 22.6816 208.601 25.043 208.601 28.5108C208.601 32.0083 210.561 34.1246 213.294 34.1246C215.344 34.1246 216.346 32.9365 216.799 31.8895H216.918V34.4588C216.918 36.5825 215.559 37.5701 213.539 37.5701C211.586 37.5701 210.651 36.627 210.168 35.7582L209.084 36.4711C209.752 37.778 211.207 38.7582 213.539 38.7582ZM213.45 32.9142C211.185 32.9142 209.93 31.1023 209.93 28.4885C209.93 25.9192 211.163 23.8846 213.45 23.8846C215.685 23.8846 216.94 25.8153 216.94 28.4885C216.94 31.2434 215.648 32.9142 213.45 32.9142Z" fill="#ABABFA"/>
<path d="M56.4131 18.9475H62.0001V34.0156H65.814V18.9475H71.401V15.7663H56.4131V18.9475ZM76.7961 34.2829C80.1822 34.2829 82.4633 32.6345 82.998 30.0949L79.4871 29.8632C79.104 30.9058 78.1238 31.4493 76.8584 31.4493C74.9604 31.4493 73.7575 30.1929 73.7575 28.1523V28.1434H83.0782V27.1008C83.0782 22.4494 80.2624 20.1504 76.6446 20.1504C72.6169 20.1504 70.006 23.0108 70.006 27.2345C70.006 31.5741 72.5813 34.2829 76.7961 34.2829ZM73.7575 25.791C73.8377 24.2316 75.0228 22.984 76.707 22.984C78.3555 22.984 79.496 24.1603 79.505 25.791H73.7575ZM90.4849 34.2829C94.1294 34.2829 96.4194 32.1444 96.5977 28.9988H93.0155C92.7927 30.4602 91.8304 31.28 90.5294 31.28C88.7562 31.28 87.6067 29.7919 87.6067 27.1721C87.6067 24.588 88.7651 23.1088 90.5294 23.1088C91.9195 23.1088 92.8106 24.0266 93.0155 25.39H96.5977C96.4373 22.2266 94.0403 20.1504 90.467 20.1504C86.3146 20.1504 83.7483 23.0286 83.7483 27.2256C83.7483 31.3869 86.27 34.2829 90.4849 34.2829ZM101.569 26.1028C101.578 24.3385 102.657 23.3048 104.207 23.3048C105.749 23.3048 106.658 24.2939 106.649 25.9781V34.0156H110.445V25.3009C110.454 22.093 108.564 20.1504 105.713 20.1504C103.637 20.1504 102.247 21.1306 101.623 22.7435H101.463V15.7663H97.7734V34.0156H101.569V26.1028ZM128.35 22.1553C127.843 17.9405 124.652 15.5168 120.429 15.5168C115.608 15.5168 111.928 18.9207 111.928 24.891C111.928 30.8434 115.546 34.2651 120.429 34.2651C125.107 34.2651 127.932 31.1553 128.35 27.7959L124.447 27.7781C124.082 29.7295 122.549 30.8523 120.491 30.8523C117.72 30.8523 115.84 28.7939 115.84 24.891C115.84 21.095 117.693 18.9296 120.518 18.9296C122.63 18.9296 124.153 20.1504 124.447 22.1553H128.35ZM138.568 28.188C138.577 30.0236 137.321 30.986 135.958 30.986C134.523 30.986 133.596 29.979 133.587 28.3662V20.3286H129.791V29.0434C129.8 32.2424 131.671 34.1938 134.425 34.1938C136.483 34.1938 137.963 33.1335 138.577 31.5295H138.72V34.0156H142.364V20.3286H138.568V28.188ZM150.384 34.2829C153.77 34.2829 156.051 32.6345 156.586 30.0949L153.075 29.8632C152.692 30.9058 151.711 31.4493 150.446 31.4493C148.548 31.4493 147.345 30.1929 147.345 28.1523V28.1434H156.666V27.1008C156.666 22.4494 153.85 20.1504 150.232 20.1504C146.205 20.1504 143.594 23.0108 143.594 27.2345C143.594 31.5741 146.169 34.2829 150.384 34.2829ZM147.345 25.791C147.425 24.2316 148.61 22.984 150.295 22.984C151.943 22.984 153.084 24.1603 153.093 25.791H147.345ZM169.276 24.2316C168.938 21.7098 166.906 20.1504 163.449 20.1504C159.947 20.1504 157.639 21.7722 157.648 24.4098C157.639 26.4593 158.931 27.787 161.604 28.3216L163.974 28.7939C165.169 29.0345 165.712 29.4711 165.73 30.1572C165.712 30.9681 164.83 31.5473 163.502 31.5473C162.148 31.5473 161.248 30.9681 161.016 29.8543L157.282 30.0503C157.639 32.6701 159.867 34.2829 163.493 34.2829C167.04 34.2829 169.579 32.4741 169.588 29.7741C169.579 27.7959 168.287 26.6107 165.632 26.0672L163.155 25.5682C161.88 25.2919 161.408 24.8553 161.417 24.1959C161.408 23.3761 162.335 22.8415 163.511 22.8415C164.83 22.8415 165.614 23.5633 165.801 24.4454L169.276 24.2316Z" fill="#ABABFA"/>
        </symbol>
        <symbol id="rocket" viewBox="0 0 64 65">
            <path d="M59.5898 2.29684C59.3593 2.27731 59.1249 2.28512 58.8906 2.32028L52.7539 3.21872C45.3632 4.30075 38.6132 8.01168 33.746 13.6718L24.9257 23.9179L9.58198 27.7343C8.56245 27.9882 7.66401 28.5468 6.98042 29.3476L3.70307 33.2031C3.19135 33.8047 3.07807 34.625 3.4101 35.3398C3.74213 36.0547 4.43745 36.5 5.22651 36.5H15.414C15.4609 36.8984 15.5898 37.2812 15.7929 37.6367L13.6367 41.6054C13.6093 41.6562 13.5859 41.7109 13.5664 41.7656C13.4687 42.0625 13.4179 42.3672 13.4101 42.6679L12.9609 42.8047C9.35151 43.9101 6.60932 46.6875 5.62104 50.2343C4.79682 53.1992 4.55854 56.2539 4.49213 57.8164C4.4726 58.375 4.68354 58.9179 5.07807 59.3125C5.44917 59.6836 5.96088 59.8945 6.48432 59.8945C6.51557 59.8945 6.54292 59.8945 6.57026 59.8906C8.12104 59.8281 11.164 59.5937 14.1171 58.7773C17.6406 57.8007 20.4999 54.957 21.5742 51.3593L21.6406 51.1328C21.6953 51.1367 21.746 51.1445 21.8007 51.1445C22.1445 51.1445 22.4921 51.0898 22.8398 50.9765C22.8906 50.9609 22.9374 50.9375 22.9843 50.9101L26.9648 48.8125C27.289 49.0039 27.6367 49.1289 27.9999 49.1875V59.2773C27.9999 60.0664 28.4414 60.7617 29.1562 61.0937C29.4296 61.2187 29.7187 61.2812 30.0039 61.2812C30.4687 61.2812 30.9218 61.1172 31.2929 60.8007L35.1523 57.5195C35.9531 56.8359 36.5078 55.9375 36.7656 54.9179L40.5156 39.832L50.9374 30.8632C56.5976 25.9961 60.3085 19.2422 61.3906 11.8554L62.2851 5.71871C62.4296 4.77731 62.121 3.84372 61.4453 3.16793C60.9374 2.66012 60.2812 2.35934 59.5898 2.29684ZM59.3281 4.28903C59.5898 4.28903 59.8398 4.39059 60.0312 4.57809C60.2539 4.80465 60.3593 5.11715 60.3124 5.43356L59.414 11.5664C58.4023 18.4804 54.9296 24.7968 49.6367 29.3515L39.1914 38.3398C39.0468 38.414 38.9179 38.5156 38.8242 38.6562L29.1289 46.9961C28.7382 47.3359 28.1406 47.3125 27.7695 46.9453L17.6679 36.8437C17.3007 36.4726 17.2773 35.875 17.6132 35.4843L35.2617 14.9765C37.4257 12.4609 39.9882 10.3632 42.8242 8.73825L47.2929 13.207C47.4882 13.4023 47.7421 13.5 47.9999 13.5C48.2578 13.5 48.5117 13.4023 48.707 13.207C49.0976 12.8164 49.0976 12.1836 48.707 11.7929L44.6757 7.76168C47.3007 6.49997 50.1171 5.62496 53.0429 5.19528L59.1757 4.29684C59.2265 4.29293 59.2773 4.28903 59.3281 4.28903ZM50.9999 14.5C50.746 14.5 50.4882 14.5976 50.2929 14.7929C49.9023 15.1836 49.9023 15.8164 50.2929 16.207L53.2929 19.207C53.4882 19.4023 53.7421 19.5 53.9999 19.5C54.2578 19.5 54.5117 19.4023 54.707 19.207C55.0976 18.8164 55.0976 18.1836 54.707 17.7929L51.707 14.7929C51.5117 14.5976 51.2539 14.5 50.9999 14.5ZM42.9999 15.5C39.6914 15.5 36.9999 18.1914 36.9999 21.5C36.9999 24.8086 39.6914 27.5 42.9999 27.5C46.3085 27.5 48.9999 24.8086 48.9999 21.5C48.9999 18.1914 46.3085 15.5 42.9999 15.5ZM42.9999 17.5C45.207 17.5 46.9999 19.2929 46.9999 21.5C46.9999 23.707 45.207 25.5 42.9999 25.5C40.7929 25.5 38.9999 23.707 38.9999 21.5C38.9999 19.2929 40.7929 17.5 42.9999 17.5ZM22.6718 26.539L16.1015 34.1757C16.0156 34.2812 15.9453 34.3906 15.8749 34.5H5.22651L8.50776 30.6406C8.91401 30.164 9.45307 29.8281 10.0664 29.6757L22.6718 26.539ZM35.2773 26.9218C35.0195 26.9218 34.7656 27.0195 34.5664 27.2148C34.1757 27.6054 34.1757 28.2382 34.5664 28.6289L35.9843 30.0429C36.1757 30.2382 36.4335 30.3359 36.6874 30.3359C36.9453 30.3359 37.2031 30.2382 37.3945 30.0429C37.789 29.6523 37.789 29.0195 37.3945 28.6289L35.9843 27.2148C35.7851 27.0195 35.5312 26.9218 35.2773 26.9218ZM31.7382 30.457C31.4843 30.457 31.2265 30.5547 31.0312 30.75C30.6406 31.1406 30.6406 31.7734 31.0312 32.164L32.4492 33.5781C32.6406 33.7734 32.8984 33.8711 33.1562 33.8711C33.4101 33.8711 33.6679 33.7734 33.8593 33.5781C34.2539 33.1875 34.2539 32.5547 33.8593 32.1601L32.4453 30.75C32.2499 30.5547 31.9921 30.457 31.7382 30.457ZM28.2031 33.9961C27.9492 33.9961 27.6914 34.0898 27.496 34.2851C27.1054 34.6797 27.1054 35.3086 27.496 35.7031L28.9101 37.1132C29.1054 37.3086 29.3593 37.4062 29.6171 37.4062C29.8749 37.4062 30.1289 37.3086 30.3242 37.1132C30.7148 36.7226 30.7148 36.0937 30.3242 35.7031L28.9101 34.2851C28.7148 34.0898 28.457 33.9961 28.2031 33.9961ZM24.6718 37.5312C24.414 37.5312 24.1601 37.625 23.9648 37.8242C23.5703 38.2109 23.5703 38.8437 23.9648 39.2343L25.3749 40.6523C25.5703 40.8437 25.8242 40.9414 26.082 40.9414C26.3398 40.9414 26.5937 40.8437 26.789 40.6523C27.1796 40.2617 27.1796 39.6289 26.789 39.2343L25.3749 37.8242C25.1796 37.625 24.9257 37.5312 24.6718 37.5312ZM17.2148 39.2148L25.3867 47.3906L22.1367 49.1015C21.7539 49.2109 21.3867 49.1328 21.1484 48.8945L15.7148 43.4648C15.4531 43.1992 15.3515 42.8242 15.4414 42.4687L17.2148 39.2148ZM37.8945 42.0937L34.8242 54.4375C34.6718 55.0468 34.3398 55.5898 33.8593 56L29.9999 59.2773V48.8203C30.1523 48.7304 30.2968 48.6289 30.4374 48.5117L37.8945 42.0937ZM14.0312 44.5664C14.1132 44.6757 14.2031 44.7812 14.3007 44.875L19.7343 50.3125C19.7499 50.3281 19.7695 50.3359 19.7851 50.3554L19.6562 50.7851C18.7773 53.7343 16.4492 56.0547 13.582 56.8476C10.8242 57.6132 7.95307 57.832 6.49213 57.9023C6.55463 56.4297 6.77729 53.5429 7.54682 50.7695C8.35151 47.8867 10.5937 45.6211 13.5468 44.7187L14.0312 44.5664Z"/>
        </symbol>
        <symbol id="facebook" viewBox="0 0 20 20" fill="none">
            <path fill-rule="evenodd" clip-rule="evenodd" d="M11.4279 20V9.99883H14.1887L14.5546 6.55237H11.4279L11.4326 4.82738C11.4326 3.92849 11.518 3.44685 12.8091 3.44685H14.535V0H11.7738C8.45725 0 7.28991 1.6719 7.28991 4.48352V6.55276H5.22257V9.99925H7.28991V20H11.4279Z" fill="white"/>
        </symbol>
        <symbol id="twitter" viewBox="0 0 20 20" fill="none">
            <path d="M19.9616 3.80766C19.2242 4.13183 18.4367 4.35266 17.6075 4.45349C18.4525 3.94433 19.1025 3.14183 19.41 2.18433C18.6175 2.64683 17.7392 2.98349 16.8042 3.17099C16.0575 2.37183 14.9933 1.87183 13.8116 1.87183C11.5475 1.87183 9.71158 3.70766 9.71158 5.96933C9.71158 6.29433 9.74917 6.60683 9.8175 6.90599C6.40916 6.74516 3.38833 5.10849 1.36667 2.63433C1.01083 3.23599 0.811667 3.93516 0.811667 4.69683C0.811667 6.12183 1.53667 7.37433 2.635 8.11016C1.96249 8.08849 1.33 7.90349 0.778333 7.59683V7.64766C0.778333 9.63517 2.18916 11.2927 4.06667 11.6702C3.72249 11.7627 3.35916 11.8127 2.98667 11.8127C2.725 11.8127 2.47416 11.7877 2.22333 11.741C2.74916 13.3685 4.26083 14.5552 6.06 14.5885C4.66 15.6877 2.88583 16.3427 0.975 16.3427C0.65 16.3427 0.325833 16.3235 0 16.2868C1.82416 17.4485 3.97333 18.1277 6.29749 18.1277C13.8425 18.1277 17.9633 11.881 17.9633 6.47266C17.9633 6.29849 17.9633 6.12266 17.9508 5.94766C18.7516 5.37349 19.4508 4.64767 20.0008 3.82433L19.9616 3.80766Z" fill="white"/>
        </symbol>
        <symbol id="hz" viewBox="0 0 20 20" fill="none">
            <path d="M4.20167 12.6375C4.20057 13.1944 3.97905 13.7281 3.58552 14.1221C3.19201 14.5161 2.65852 14.7382 2.10167 14.74C1.54453 14.7387 1.01061 14.5168 0.616728 14.1227C0.222852 13.7287 0.00110036 13.1947 0 12.6375C0.00154122 12.0807 0.223514 11.5472 0.617367 11.1537C1.01122 10.7602 1.54489 10.5386 2.10167 10.5375H4.20167V12.6375ZM5.26084 12.6375C5.26237 12.0808 5.48422 11.5475 5.87791 11.154C6.27158 10.7605 6.80504 10.5388 7.36167 10.5375C7.91829 10.5388 8.45175 10.7605 8.84542 11.154C9.23908 11.5475 9.461 12.0808 9.4625 12.6375V17.8984C9.46117 18.4552 9.23942 18.9888 8.84575 19.3827C8.45208 19.7765 7.91852 19.9985 7.36167 20C6.80482 19.9985 6.27124 19.7765 5.87756 19.3827C5.48388 18.9888 5.26215 18.4552 5.26084 17.8984V12.6375ZM7.36167 4.20167C6.80511 4.20012 6.27177 3.97841 5.87814 3.58494C5.48452 3.19147 5.26259 2.65823 5.26084 2.10167C5.26215 1.54482 5.48388 1.01114 5.87756 0.617316C6.27124 0.223487 6.80482 0.00154034 7.36167 0C7.91852 0.00154034 8.45208 0.223487 8.84575 0.617316C9.23942 1.01114 9.46117 1.54482 9.4625 2.10167V4.20167H7.36167ZM7.36167 5.26084C7.91837 5.26237 8.45183 5.4842 8.8455 5.87786C9.23917 6.27151 9.461 6.80496 9.4625 7.36167C9.461 7.91837 9.23917 8.45183 8.8455 8.8455C8.45183 9.23917 7.91837 9.461 7.36167 9.4625H2.10167C1.54482 9.46117 1.01114 9.23942 0.617316 8.84575C0.223487 8.45208 0.00154034 7.91852 0 7.36167C0.00154034 6.80482 0.223487 6.27124 0.617316 5.87756C1.01114 5.48388 1.54482 5.26215 2.10167 5.26084H7.36167ZM15.7967 7.36167C15.7982 6.80482 16.0202 6.27124 16.414 5.87756C16.8078 5.48388 17.3415 5.26215 17.8984 5.26084C18.4552 5.26215 18.9888 5.48388 19.3827 5.87756C19.7765 6.27124 19.9985 6.80482 20 7.36167C19.9985 7.91852 19.7765 8.45208 19.3827 8.84575C18.9888 9.23942 18.4552 9.46117 17.8984 9.4625H15.7967V7.36167ZM14.74 7.36167C14.7385 7.91866 14.5164 8.45233 14.1224 8.84608C13.7284 9.23975 13.1945 9.46142 12.6375 9.4625C12.0808 9.461 11.5475 9.23908 11.154 8.84542C10.7605 8.45175 10.5388 7.91829 10.5375 7.36167V2.10167C10.5386 1.54489 10.7602 1.01122 11.1537 0.617367C11.5472 0.223514 12.0807 0.00154122 12.6375 0C13.1947 0.00110036 13.7287 0.222852 14.1227 0.616728C14.5168 1.01061 14.7387 1.54453 14.74 2.10167V7.36167ZM12.6375 15.7967C13.1947 15.7978 13.7287 16.0195 14.1227 16.4134C14.5168 16.8072 14.7387 17.3412 14.74 17.8984C14.7387 18.4554 14.5168 18.9894 14.1227 19.3832C13.7287 19.7772 13.1947 19.9988 12.6375 20C12.0807 19.9985 11.5472 19.7765 11.1537 19.3827C10.7602 18.9887 10.5386 18.4552 10.5375 17.8984V15.7967H12.6375ZM12.6375 14.74C12.0806 14.7385 11.5469 14.5164 11.1534 14.1224C10.7598 13.7282 10.5384 13.1944 10.5375 12.6375C10.5388 12.0809 10.7605 11.5476 11.154 11.154C11.5476 10.7605 12.0809 10.5388 12.6375 10.5375H17.8984C18.4552 10.5386 18.9887 10.7602 19.3827 11.1537C19.7765 11.5472 19.9985 12.0807 20 12.6375C19.9988 13.1947 19.7772 13.7287 19.3832 14.1227C18.9894 14.5168 18.4554 14.7387 17.8984 14.74H12.6375Z" fill="white"/>
        </symbol>
        <symbol id="instagram" viewBox="0 0 20 20" fill="none">
            <path d="M10 0C7.28333 0 6.94417 0.0125 5.8775 0.06C4.8125 0.11 4.0875 0.2775 3.45 0.525C2.7925 0.78 2.23417 1.1225 1.67833 1.67833C1.1225 2.23417 0.779167 2.79167 0.525 3.45C0.2775 4.0875 0.109167 4.8125 0.06 5.8775C0.01 6.94417 0 7.28333 0 10C0 12.7167 0.0125 13.0559 0.06 14.1226C0.11 15.1867 0.2775 15.9126 0.525 16.55C0.78 17.2067 1.1225 17.7659 1.67833 18.3217C2.23417 18.8767 2.79167 19.2209 3.45 19.475C4.08833 19.7217 4.81333 19.8907 5.8775 19.94C6.94417 19.99 7.28333 20 10 20C12.7167 20 13.0559 19.9874 14.1226 19.94C15.1867 19.89 15.9126 19.7217 16.55 19.475C17.2067 19.22 17.7659 18.8767 18.3217 18.3217C18.8767 17.7659 19.2209 17.2092 19.475 16.55C19.7217 15.9126 19.8907 15.1867 19.94 14.1226C19.99 13.0559 20 12.7167 20 10C20 7.28333 19.9874 6.94417 19.94 5.8775C19.89 4.81333 19.7217 4.08667 19.475 3.45C19.22 2.7925 18.8767 2.23417 18.3217 1.67833C17.7659 1.1225 17.2092 0.779167 16.55 0.525C15.9126 0.2775 15.1867 0.109167 14.1226 0.06C13.0559 0.01 12.7167 0 10 0ZM10 1.8C12.6692 1.8 12.9876 1.81333 14.0417 1.85917C15.0167 1.905 15.5457 2.06667 15.8974 2.205C16.3657 2.38583 16.6974 2.6025 17.0491 2.95167C17.3983 3.30167 17.615 3.63417 17.7957 4.1025C17.9324 4.45417 18.0957 4.98333 18.14 5.95833C18.1874 7.01333 18.1983 7.33 18.1983 10C18.1983 12.67 18.1857 12.9876 18.1367 14.0417C18.0857 15.0167 17.9233 15.5457 17.7859 15.8974C17.5992 16.3657 17.3867 16.6974 17.0367 17.0491C16.6876 17.3983 16.35 17.615 15.8867 17.7957C15.5367 17.9324 14.9992 18.0957 14.0242 18.14C12.9626 18.1874 12.65 18.1983 9.975 18.1983C7.29917 18.1983 6.98667 18.1857 5.92583 18.1367C4.95 18.0857 4.4125 17.9233 4.0625 17.7859C3.58833 17.5992 3.2625 17.3867 2.91333 17.0367C2.5625 16.6876 2.33833 16.35 2.16333 15.8867C2.02583 15.5367 1.86417 14.9992 1.81333 14.0242C1.77583 12.9742 1.7625 12.65 1.7625 9.9875C1.7625 7.32417 1.77583 6.99917 1.81333 5.93667C1.86417 4.96167 2.02583 4.425 2.16333 4.075C2.33833 3.6 2.5625 3.275 2.91333 2.92417C3.2625 2.575 3.58833 2.35 4.0625 2.17583C4.4125 2.0375 4.93833 1.875 5.91333 1.825C6.97583 1.7875 7.28833 1.775 9.9625 1.775L10 1.8ZM10 4.865C7.1625 4.865 4.865 7.165 4.865 10C4.865 12.8374 7.165 15.135 10 15.135C12.8374 15.135 15.135 12.835 15.135 10C15.135 7.1625 12.835 4.865 10 4.865ZM10 13.3333C8.15833 13.3333 6.66667 11.8417 6.66667 10C6.66667 8.15833 8.15833 6.66667 10 6.66667C11.8417 6.66667 13.3333 8.15833 13.3333 10C13.3333 11.8417 11.8417 13.3333 10 13.3333ZM16.5383 4.6625C16.5383 5.325 16 5.8625 15.3383 5.8625C14.6759 5.8625 14.1383 5.32417 14.1383 4.6625C14.1383 4.00083 14.6767 3.46333 15.3383 3.46333C15.9992 3.4625 16.5383 4.00083 16.5383 4.6625Z" fill="white"/>
        </symbol>
        <symbol id="triangles" viewBox="0 0 404 392">
            <path d="M4 4L0 0L3.49691e-07 8L4 4Z" fill="#ABABFA"/>
<path d="M24 4L20 0V8L24 4Z" fill="#ABABFA"/>
<path d="M44 4L40 0V8L44 4Z" fill="#ABABFA"/>
<path d="M64 4L60 0V8L64 4Z" fill="#ABABFA"/>
<path d="M84 4L80 0V8L84 4Z" fill="#ABABFA"/>
<path d="M104 4L100 0V8L104 4Z" fill="#ABABFA"/>
<path d="M124 4L120 0V8L124 4Z" fill="#ABABFA"/>
<path d="M144 4L140 0V8L144 4Z" fill="#ABABFA"/>
<path d="M164 4L160 0V8L164 4Z" fill="#ABABFA"/>
<path d="M184 4L180 0V8L184 4Z" fill="#ABABFA"/>
<path d="M204 4L200 0V8L204 4Z" fill="#ABABFA"/>
<path d="M224 4L220 0V8L224 4Z" fill="#ABABFA"/>
<path d="M244 4L240 0V8L244 4Z" fill="#ABABFA"/>
<path d="M264 4L260 0V8L264 4Z" fill="#ABABFA"/>
<path d="M284 4L280 0V8L284 4Z" fill="#ABABFA"/>
<path d="M304 4L300 0V8L304 4Z" fill="#ABABFA"/>
<path d="M324 4L320 0V8L324 4Z" fill="#ABABFA"/>
<path d="M344 4L340 0V8L344 4Z" fill="#ABABFA"/>
<path d="M364 4L360 0V8L364 4Z" fill="#ABABFA"/>
<path d="M384 4L380 0V8L384 4Z" fill="#ABABFA"/>
<path d="M404 4L400 0V8L404 4Z" fill="#ABABFA"/>
<path d="M4 28L0 24L3.49691e-07 32L4 28Z" fill="#ABABFA"/>
<path d="M24 28L20 24V32L24 28Z" fill="#ABABFA"/>
<path d="M44 28L40 24V32L44 28Z" fill="#ABABFA"/>
<path d="M64 28L60 24V32L64 28Z" fill="#ABABFA"/>
<path d="M84 28L80 24V32L84 28Z" fill="#ABABFA"/>
<path d="M104 28L100 24V32L104 28Z" fill="#ABABFA"/>
<path d="M124 28L120 24V32L124 28Z" fill="#ABABFA"/>
<path d="M144 28L140 24V32L144 28Z" fill="#ABABFA"/>
<path d="M164 28L160 24V32L164 28Z" fill="#ABABFA"/>
<path d="M184 28L180 24V32L184 28Z" fill="#ABABFA"/>
<path d="M204 28L200 24V32L204 28Z" fill="#ABABFA"/>
<path d="M224 28L220 24V32L224 28Z" fill="#ABABFA"/>
<path d="M244 28L240 24V32L244 28Z" fill="#ABABFA"/>
<path d="M264 28L260 24V32L264 28Z" fill="#ABABFA"/>
<path d="M284 28L280 24V32L284 28Z" fill="#ABABFA"/>
<path d="M304 28L300 24V32L304 28Z" fill="#ABABFA"/>
<path d="M324 28L320 24V32L324 28Z" fill="#ABABFA"/>
<path d="M344 28L340 24V32L344 28Z" fill="#ABABFA"/>
<path d="M364 28L360 24V32L364 28Z" fill="#ABABFA"/>
<path d="M384 28L380 24V32L384 28Z" fill="#ABABFA"/>
<path d="M404 28L400 24V32L404 28Z" fill="#ABABFA"/>
<path d="M4 52L0 48L3.49691e-07 56L4 52Z" fill="#ABABFA"/>
<path d="M24 52L20 48V56L24 52Z" fill="#ABABFA"/>
<path d="M44 52L40 48V56L44 52Z" fill="#ABABFA"/>
<path d="M64 52L60 48V56L64 52Z" fill="#ABABFA"/>
<path d="M84 52L80 48V56L84 52Z" fill="#ABABFA"/>
<path d="M104 52L100 48V56L104 52Z" fill="#ABABFA"/>
<path d="M124 52L120 48V56L124 52Z" fill="#ABABFA"/>
<path d="M144 52L140 48V56L144 52Z" fill="#ABABFA"/>
<path d="M164 52L160 48V56L164 52Z" fill="#ABABFA"/>
<path d="M184 52L180 48V56L184 52Z" fill="#ABABFA"/>
<path d="M204 52L200 48V56L204 52Z" fill="#ABABFA"/>
<path d="M224 52L220 48V56L224 52Z" fill="#ABABFA"/>
<path d="M244 52L240 48V56L244 52Z" fill="#ABABFA"/>
<path d="M264 52L260 48V56L264 52Z" fill="#ABABFA"/>
<path d="M284 52L280 48V56L284 52Z" fill="#ABABFA"/>
<path d="M304 52L300 48V56L304 52Z" fill="#ABABFA"/>
<path d="M324 52L320 48V56L324 52Z" fill="#ABABFA"/>
<path d="M344 52L340 48V56L344 52Z" fill="#ABABFA"/>
<path d="M364 52L360 48V56L364 52Z" fill="#ABABFA"/>
<path d="M384 52L380 48V56L384 52Z" fill="#ABABFA"/>
<path d="M404 52L400 48V56L404 52Z" fill="#ABABFA"/>
<path d="M4 76L0 72L3.49691e-07 80L4 76Z" fill="#ABABFA"/>
<path d="M24 76L20 72V80L24 76Z" fill="#ABABFA"/>
<path d="M44 76L40 72V80L44 76Z" fill="#ABABFA"/>
<path d="M64 76L60 72V80L64 76Z" fill="#ABABFA"/>
<path d="M84 76L80 72V80L84 76Z" fill="#ABABFA"/>
<path d="M104 76L100 72V80L104 76Z" fill="#ABABFA"/>
<path d="M124 76L120 72V80L124 76Z" fill="#ABABFA"/>
<path d="M144 76L140 72V80L144 76Z" fill="#ABABFA"/>
<path d="M164 76L160 72V80L164 76Z" fill="#ABABFA"/>
<path d="M184 76L180 72V80L184 76Z" fill="#ABABFA"/>
<path d="M204 76L200 72V80L204 76Z" fill="#ABABFA"/>
<path d="M224 76L220 72V80L224 76Z" fill="#ABABFA"/>
<path d="M244 76L240 72V80L244 76Z" fill="#ABABFA"/>
<path d="M264 76L260 72V80L264 76Z" fill="#ABABFA"/>
<path d="M284 76L280 72V80L284 76Z" fill="#ABABFA"/>
<path d="M304 76L300 72V80L304 76Z" fill="#ABABFA"/>
<path d="M324 76L320 72V80L324 76Z" fill="#ABABFA"/>
<path d="M344 76L340 72V80L344 76Z" fill="#ABABFA"/>
<path d="M364 76L360 72V80L364 76Z" fill="#ABABFA"/>
<path d="M384 76L380 72V80L384 76Z" fill="#ABABFA"/>
<path d="M404 76L400 72V80L404 76Z" fill="#ABABFA"/>
<path d="M4 100L0 96L3.49691e-07 104L4 100Z" fill="#ABABFA"/>
<path d="M24 100L20 96V104L24 100Z" fill="#ABABFA"/>
<path d="M44 100L40 96V104L44 100Z" fill="#ABABFA"/>
<path d="M64 100L60 96V104L64 100Z" fill="#ABABFA"/>
<path d="M84 100L80 96V104L84 100Z" fill="#ABABFA"/>
<path d="M104 100L100 96V104L104 100Z" fill="#ABABFA"/>
<path d="M124 100L120 96V104L124 100Z" fill="#ABABFA"/>
<path d="M144 100L140 96V104L144 100Z" fill="#ABABFA"/>
<path d="M164 100L160 96V104L164 100Z" fill="#ABABFA"/>
<path d="M184 100L180 96V104L184 100Z" fill="#ABABFA"/>
<path d="M204 100L200 96V104L204 100Z" fill="#ABABFA"/>
<path d="M224 100L220 96V104L224 100Z" fill="#ABABFA"/>
<path d="M244 100L240 96V104L244 100Z" fill="#ABABFA"/>
<path d="M264 100L260 96V104L264 100Z" fill="#ABABFA"/>
<path d="M284 100L280 96V104L284 100Z" fill="#ABABFA"/>
<path d="M304 100L300 96V104L304 100Z" fill="#ABABFA"/>
<path d="M324 100L320 96V104L324 100Z" fill="#ABABFA"/>
<path d="M344 100L340 96V104L344 100Z" fill="#ABABFA"/>
<path d="M364 100L360 96V104L364 100Z" fill="#ABABFA"/>
<path d="M384 100L380 96V104L384 100Z" fill="#ABABFA"/>
<path d="M404 100L400 96V104L404 100Z" fill="#ABABFA"/>
<path d="M4 124L0 120L3.49691e-07 128L4 124Z" fill="#ABABFA"/>
<path d="M24 124L20 120V128L24 124Z" fill="#ABABFA"/>
<path d="M44 124L40 120V128L44 124Z" fill="#ABABFA"/>
<path d="M64 124L60 120V128L64 124Z" fill="#ABABFA"/>
<path d="M84 124L80 120V128L84 124Z" fill="#ABABFA"/>
<path d="M104 124L100 120V128L104 124Z" fill="#ABABFA"/>
<path d="M124 124L120 120V128L124 124Z" fill="#ABABFA"/>
<path d="M144 124L140 120V128L144 124Z" fill="#ABABFA"/>
<path d="M164 124L160 120V128L164 124Z" fill="#ABABFA"/>
<path d="M184 124L180 120V128L184 124Z" fill="#ABABFA"/>
<path d="M204 124L200 120V128L204 124Z" fill="#ABABFA"/>
<path d="M224 124L220 120V128L224 124Z" fill="#ABABFA"/>
<path d="M244 124L240 120V128L244 124Z" fill="#ABABFA"/>
<path d="M264 124L260 120V128L264 124Z" fill="#ABABFA"/>
<path d="M284 124L280 120V128L284 124Z" fill="#ABABFA"/>
<path d="M304 124L300 120V128L304 124Z" fill="#ABABFA"/>
<path d="M324 124L320 120V128L324 124Z" fill="#ABABFA"/>
<path d="M344 124L340 120V128L344 124Z" fill="#ABABFA"/>
<path d="M364 124L360 120V128L364 124Z" fill="#ABABFA"/>
<path d="M384 124L380 120V128L384 124Z" fill="#ABABFA"/>
<path d="M404 124L400 120V128L404 124Z" fill="#ABABFA"/>
<path d="M4 148L0 144L3.49691e-07 152L4 148Z" fill="#ABABFA"/>
<path d="M24 148L20 144V152L24 148Z" fill="#ABABFA"/>
<path d="M44 148L40 144V152L44 148Z" fill="#ABABFA"/>
<path d="M64 148L60 144V152L64 148Z" fill="#ABABFA"/>
<path d="M84 148L80 144V152L84 148Z" fill="#ABABFA"/>
<path d="M104 148L100 144V152L104 148Z" fill="#ABABFA"/>
<path d="M124 148L120 144V152L124 148Z" fill="#ABABFA"/>
<path d="M144 148L140 144V152L144 148Z" fill="#ABABFA"/>
<path d="M164 148L160 144V152L164 148Z" fill="#ABABFA"/>
<path d="M184 148L180 144V152L184 148Z" fill="#ABABFA"/>
<path d="M204 148L200 144V152L204 148Z" fill="#ABABFA"/>
<path d="M224 148L220 144V152L224 148Z" fill="#ABABFA"/>
<path d="M244 148L240 144V152L244 148Z" fill="#ABABFA"/>
<path d="M264 148L260 144V152L264 148Z" fill="#ABABFA"/>
<path d="M284 148L280 144V152L284 148Z" fill="#ABABFA"/>
<path d="M304 148L300 144V152L304 148Z" fill="#ABABFA"/>
<path d="M324 148L320 144V152L324 148Z" fill="#ABABFA"/>
<path d="M344 148L340 144V152L344 148Z" fill="#ABABFA"/>
<path d="M364 148L360 144V152L364 148Z" fill="#ABABFA"/>
<path d="M384 148L380 144V152L384 148Z" fill="#ABABFA"/>
<path d="M404 148L400 144V152L404 148Z" fill="#ABABFA"/>
<path d="M4 172L0 168L3.49691e-07 176L4 172Z" fill="#ABABFA"/>
<path d="M24 172L20 168V176L24 172Z" fill="#ABABFA"/>
<path d="M44 172L40 168V176L44 172Z" fill="#ABABFA"/>
<path d="M64 172L60 168V176L64 172Z" fill="#ABABFA"/>
<path d="M84 172L80 168V176L84 172Z" fill="#ABABFA"/>
<path d="M104 172L100 168V176L104 172Z" fill="#ABABFA"/>
<path d="M124 172L120 168V176L124 172Z" fill="#ABABFA"/>
<path d="M144 172L140 168V176L144 172Z" fill="#ABABFA"/>
<path d="M164 172L160 168V176L164 172Z" fill="#ABABFA"/>
<path d="M184 172L180 168V176L184 172Z" fill="#ABABFA"/>
<path d="M204 172L200 168V176L204 172Z" fill="#ABABFA"/>
<path d="M224 172L220 168V176L224 172Z" fill="#ABABFA"/>
<path d="M244 172L240 168V176L244 172Z" fill="#ABABFA"/>
<path d="M264 172L260 168V176L264 172Z" fill="#ABABFA"/>
<path d="M284 172L280 168V176L284 172Z" fill="#ABABFA"/>
<path d="M304 172L300 168V176L304 172Z" fill="#ABABFA"/>
<path d="M324 172L320 168V176L324 172Z" fill="#ABABFA"/>
<path d="M344 172L340 168V176L344 172Z" fill="#ABABFA"/>
<path d="M364 172L360 168V176L364 172Z" fill="#ABABFA"/>
<path d="M384 172L380 168V176L384 172Z" fill="#ABABFA"/>
<path d="M404 172L400 168V176L404 172Z" fill="#ABABFA"/>
<path d="M4 196L0 192L3.49691e-07 200L4 196Z" fill="#ABABFA"/>
<path d="M24 196L20 192V200L24 196Z" fill="#ABABFA"/>
<path d="M44 196L40 192V200L44 196Z" fill="#ABABFA"/>
<path d="M64 196L60 192V200L64 196Z" fill="#ABABFA"/>
<path d="M84 196L80 192V200L84 196Z" fill="#ABABFA"/>
<path d="M104 196L100 192V200L104 196Z" fill="#ABABFA"/>
<path d="M124 196L120 192V200L124 196Z" fill="#ABABFA"/>
<path d="M144 196L140 192V200L144 196Z" fill="#ABABFA"/>
<path d="M164 196L160 192V200L164 196Z" fill="#ABABFA"/>
<path d="M184 196L180 192V200L184 196Z" fill="#ABABFA"/>
<path d="M204 196L200 192V200L204 196Z" fill="#ABABFA"/>
<path d="M224 196L220 192V200L224 196Z" fill="#ABABFA"/>
<path d="M244 196L240 192V200L244 196Z" fill="#ABABFA"/>
<path d="M264 196L260 192V200L264 196Z" fill="#ABABFA"/>
<path d="M284 196L280 192V200L284 196Z" fill="#ABABFA"/>
<path d="M304 196L300 192V200L304 196Z" fill="#ABABFA"/>
<path d="M324 196L320 192V200L324 196Z" fill="#ABABFA"/>
<path d="M344 196L340 192V200L344 196Z" fill="#ABABFA"/>
<path d="M364 196L360 192V200L364 196Z" fill="#ABABFA"/>
<path d="M384 196L380 192V200L384 196Z" fill="#ABABFA"/>
<path d="M404 196L400 192V200L404 196Z" fill="#ABABFA"/>
<path d="M4 220L0 216L3.49691e-07 224L4 220Z" fill="#ABABFA"/>
<path d="M24 220L20 216V224L24 220Z" fill="#ABABFA"/>
<path d="M44 220L40 216V224L44 220Z" fill="#ABABFA"/>
<path d="M64 220L60 216V224L64 220Z" fill="#ABABFA"/>
<path d="M84 220L80 216V224L84 220Z" fill="#ABABFA"/>
<path d="M104 220L100 216V224L104 220Z" fill="#ABABFA"/>
<path d="M124 220L120 216V224L124 220Z" fill="#ABABFA"/>
<path d="M144 220L140 216V224L144 220Z" fill="#ABABFA"/>
<path d="M164 220L160 216V224L164 220Z" fill="#ABABFA"/>
<path d="M184 220L180 216V224L184 220Z" fill="#ABABFA"/>
<path d="M204 220L200 216V224L204 220Z" fill="#ABABFA"/>
<path d="M224 220L220 216V224L224 220Z" fill="#ABABFA"/>
<path d="M244 220L240 216V224L244 220Z" fill="#ABABFA"/>
<path d="M264 220L260 216V224L264 220Z" fill="#ABABFA"/>
<path d="M284 220L280 216V224L284 220Z" fill="#ABABFA"/>
<path d="M304 220L300 216V224L304 220Z" fill="#ABABFA"/>
<path d="M324 220L320 216V224L324 220Z" fill="#ABABFA"/>
<path d="M344 220L340 216V224L344 220Z" fill="#ABABFA"/>
<path d="M364 220L360 216V224L364 220Z" fill="#ABABFA"/>
<path d="M384 220L380 216V224L384 220Z" fill="#ABABFA"/>
<path d="M404 220L400 216V224L404 220Z" fill="#ABABFA"/>
<path d="M4 244L0 240L3.49691e-07 248L4 244Z" fill="#ABABFA"/>
<path d="M24 244L20 240V248L24 244Z" fill="#ABABFA"/>
<path d="M44 244L40 240V248L44 244Z" fill="#ABABFA"/>
<path d="M64 244L60 240V248L64 244Z" fill="#ABABFA"/>
<path d="M84 244L80 240V248L84 244Z" fill="#ABABFA"/>
<path d="M104 244L100 240V248L104 244Z" fill="#ABABFA"/>
<path d="M124 244L120 240V248L124 244Z" fill="#ABABFA"/>
<path d="M144 244L140 240V248L144 244Z" fill="#ABABFA"/>
<path d="M164 244L160 240V248L164 244Z" fill="#ABABFA"/>
<path d="M184 244L180 240V248L184 244Z" fill="#ABABFA"/>
<path d="M204 244L200 240V248L204 244Z" fill="#ABABFA"/>
<path d="M224 244L220 240V248L224 244Z" fill="#ABABFA"/>
<path d="M244 244L240 240V248L244 244Z" fill="#ABABFA"/>
<path d="M264 244L260 240V248L264 244Z" fill="#ABABFA"/>
<path d="M284 244L280 240V248L284 244Z" fill="#ABABFA"/>
<path d="M304 244L300 240V248L304 244Z" fill="#ABABFA"/>
<path d="M324 244L320 240V248L324 244Z" fill="#ABABFA"/>
<path d="M344 244L340 240V248L344 244Z" fill="#ABABFA"/>
<path d="M364 244L360 240V248L364 244Z" fill="#ABABFA"/>
<path d="M384 244L380 240V248L384 244Z" fill="#ABABFA"/>
<path d="M404 244L400 240V248L404 244Z" fill="#ABABFA"/>
<path d="M4 268L0 264L3.49691e-07 272L4 268Z" fill="#ABABFA"/>
<path d="M24 268L20 264V272L24 268Z" fill="#ABABFA"/>
<path d="M44 268L40 264V272L44 268Z" fill="#ABABFA"/>
<path d="M64 268L60 264V272L64 268Z" fill="#ABABFA"/>
<path d="M84 268L80 264V272L84 268Z" fill="#ABABFA"/>
<path d="M104 268L100 264V272L104 268Z" fill="#ABABFA"/>
<path d="M124 268L120 264V272L124 268Z" fill="#ABABFA"/>
<path d="M144 268L140 264V272L144 268Z" fill="#ABABFA"/>
<path d="M164 268L160 264V272L164 268Z" fill="#ABABFA"/>
<path d="M184 268L180 264V272L184 268Z" fill="#ABABFA"/>
<path d="M204 268L200 264V272L204 268Z" fill="#ABABFA"/>
<path d="M224 268L220 264V272L224 268Z" fill="#ABABFA"/>
<path d="M244 268L240 264V272L244 268Z" fill="#ABABFA"/>
<path d="M264 268L260 264V272L264 268Z" fill="#ABABFA"/>
<path d="M284 268L280 264V272L284 268Z" fill="#ABABFA"/>
<path d="M304 268L300 264V272L304 268Z" fill="#ABABFA"/>
<path d="M324 268L320 264V272L324 268Z" fill="#ABABFA"/>
<path d="M344 268L340 264V272L344 268Z" fill="#ABABFA"/>
<path d="M364 268L360 264V272L364 268Z" fill="#ABABFA"/>
<path d="M384 268L380 264V272L384 268Z" fill="#ABABFA"/>
<path d="M404 268L400 264V272L404 268Z" fill="#ABABFA"/>
<path d="M4 292L0 288L3.49691e-07 296L4 292Z" fill="#ABABFA"/>
<path d="M24 292L20 288V296L24 292Z" fill="#ABABFA"/>
<path d="M44 292L40 288V296L44 292Z" fill="#ABABFA"/>
<path d="M64 292L60 288V296L64 292Z" fill="#ABABFA"/>
<path d="M84 292L80 288V296L84 292Z" fill="#ABABFA"/>
<path d="M104 292L100 288V296L104 292Z" fill="#ABABFA"/>
<path d="M124 292L120 288V296L124 292Z" fill="#ABABFA"/>
<path d="M144 292L140 288V296L144 292Z" fill="#ABABFA"/>
<path d="M164 292L160 288V296L164 292Z" fill="#ABABFA"/>
<path d="M184 292L180 288V296L184 292Z" fill="#ABABFA"/>
<path d="M204 292L200 288V296L204 292Z" fill="#ABABFA"/>
<path d="M224 292L220 288V296L224 292Z" fill="#ABABFA"/>
<path d="M244 292L240 288V296L244 292Z" fill="#ABABFA"/>
<path d="M264 292L260 288V296L264 292Z" fill="#ABABFA"/>
<path d="M284 292L280 288V296L284 292Z" fill="#ABABFA"/>
<path d="M304 292L300 288V296L304 292Z" fill="#ABABFA"/>
<path d="M324 292L320 288V296L324 292Z" fill="#ABABFA"/>
<path d="M344 292L340 288V296L344 292Z" fill="#ABABFA"/>
<path d="M364 292L360 288V296L364 292Z" fill="#ABABFA"/>
<path d="M384 292L380 288V296L384 292Z" fill="#ABABFA"/>
<path d="M404 292L400 288V296L404 292Z" fill="#ABABFA"/>
<path d="M4 316L0 312L3.49691e-07 320L4 316Z" fill="#ABABFA"/>
<path d="M24 316L20 312V320L24 316Z" fill="#ABABFA"/>
<path d="M44 316L40 312V320L44 316Z" fill="#ABABFA"/>
<path d="M64 316L60 312V320L64 316Z" fill="#ABABFA"/>
<path d="M84 316L80 312V320L84 316Z" fill="#ABABFA"/>
<path d="M104 316L100 312V320L104 316Z" fill="#ABABFA"/>
<path d="M124 316L120 312V320L124 316Z" fill="#ABABFA"/>
<path d="M144 316L140 312V320L144 316Z" fill="#ABABFA"/>
<path d="M164 316L160 312V320L164 316Z" fill="#ABABFA"/>
<path d="M184 316L180 312V320L184 316Z" fill="#ABABFA"/>
<path d="M204 316L200 312V320L204 316Z" fill="#ABABFA"/>
<path d="M224 316L220 312V320L224 316Z" fill="#ABABFA"/>
<path d="M244 316L240 312V320L244 316Z" fill="#ABABFA"/>
<path d="M264 316L260 312V320L264 316Z" fill="#ABABFA"/>
<path d="M284 316L280 312V320L284 316Z" fill="#ABABFA"/>
<path d="M304 316L300 312V320L304 316Z" fill="#ABABFA"/>
<path d="M324 316L320 312V320L324 316Z" fill="#ABABFA"/>
<path d="M344 316L340 312V320L344 316Z" fill="#ABABFA"/>
<path d="M364 316L360 312V320L364 316Z" fill="#ABABFA"/>
<path d="M384 316L380 312V320L384 316Z" fill="#ABABFA"/>
<path d="M404 316L400 312V320L404 316Z" fill="#ABABFA"/>
<path d="M4 340L0 336L3.49691e-07 344L4 340Z" fill="#ABABFA"/>
<path d="M24 340L20 336V344L24 340Z" fill="#ABABFA"/>
<path d="M44 340L40 336V344L44 340Z" fill="#ABABFA"/>
<path d="M64 340L60 336V344L64 340Z" fill="#ABABFA"/>
<path d="M84 340L80 336V344L84 340Z" fill="#ABABFA"/>
<path d="M104 340L100 336V344L104 340Z" fill="#ABABFA"/>
<path d="M124 340L120 336V344L124 340Z" fill="#ABABFA"/>
<path d="M144 340L140 336V344L144 340Z" fill="#ABABFA"/>
<path d="M164 340L160 336V344L164 340Z" fill="#ABABFA"/>
<path d="M184 340L180 336V344L184 340Z" fill="#ABABFA"/>
<path d="M204 340L200 336V344L204 340Z" fill="#ABABFA"/>
<path d="M224 340L220 336V344L224 340Z" fill="#ABABFA"/>
<path d="M244 340L240 336V344L244 340Z" fill="#ABABFA"/>
<path d="M264 340L260 336V344L264 340Z" fill="#ABABFA"/>
<path d="M284 340L280 336V344L284 340Z" fill="#ABABFA"/>
<path d="M304 340L300 336V344L304 340Z" fill="#ABABFA"/>
<path d="M324 340L320 336V344L324 340Z" fill="#ABABFA"/>
<path d="M344 340L340 336V344L344 340Z" fill="#ABABFA"/>
<path d="M364 340L360 336V344L364 340Z" fill="#ABABFA"/>
<path d="M384 340L380 336V344L384 340Z" fill="#ABABFA"/>
<path d="M404 340L400 336V344L404 340Z" fill="#ABABFA"/>
<path d="M4 364L0 360L3.49691e-07 368L4 364Z" fill="#ABABFA"/>
<path d="M24 364L20 360V368L24 364Z" fill="#ABABFA"/>
<path d="M44 364L40 360V368L44 364Z" fill="#ABABFA"/>
<path d="M64 364L60 360V368L64 364Z" fill="#ABABFA"/>
<path d="M84 364L80 360V368L84 364Z" fill="#ABABFA"/>
<path d="M104 364L100 360V368L104 364Z" fill="#ABABFA"/>
<path d="M124 364L120 360V368L124 364Z" fill="#ABABFA"/>
<path d="M144 364L140 360V368L144 364Z" fill="#ABABFA"/>
<path d="M164 364L160 360V368L164 364Z" fill="#ABABFA"/>
<path d="M184 364L180 360V368L184 364Z" fill="#ABABFA"/>
<path d="M204 364L200 360V368L204 364Z" fill="#ABABFA"/>
<path d="M224 364L220 360V368L224 364Z" fill="#ABABFA"/>
<path d="M244 364L240 360V368L244 364Z" fill="#ABABFA"/>
<path d="M264 364L260 360V368L264 364Z" fill="#ABABFA"/>
<path d="M284 364L280 360V368L284 364Z" fill="#ABABFA"/>
<path d="M304 364L300 360V368L304 364Z" fill="#ABABFA"/>
<path d="M324 364L320 360V368L324 364Z" fill="#ABABFA"/>
<path d="M344 364L340 360V368L344 364Z" fill="#ABABFA"/>
<path d="M364 364L360 360V368L364 364Z" fill="#ABABFA"/>
<path d="M384 364L380 360V368L384 364Z" fill="#ABABFA"/>
<path d="M404 364L400 360V368L404 364Z" fill="#ABABFA"/>
<path d="M4 388L0 384L3.49691e-07 392L4 388Z" fill="#ABABFA"/>
<path d="M24 388L20 384V392L24 388Z" fill="#ABABFA"/>
<path d="M44 388L40 384V392L44 388Z" fill="#ABABFA"/>
<path d="M64 388L60 384V392L64 388Z" fill="#ABABFA"/>
<path d="M84 388L80 384V392L84 388Z" fill="#ABABFA"/>
<path d="M104 388L100 384V392L104 388Z" fill="#ABABFA"/>
<path d="M124 388L120 384V392L124 388Z" fill="#ABABFA"/>
<path d="M144 388L140 384V392L144 388Z" fill="#ABABFA"/>
<path d="M164 388L160 384V392L164 388Z" fill="#ABABFA"/>
<path d="M184 388L180 384V392L184 388Z" fill="#ABABFA"/>
<path d="M204 388L200 384V392L204 388Z" fill="#ABABFA"/>
<path d="M224 388L220 384V392L224 388Z" fill="#ABABFA"/>
<path d="M244 388L240 384V392L244 388Z" fill="#ABABFA"/>
<path d="M264 388L260 384V392L264 388Z" fill="#ABABFA"/>
<path d="M284 388L280 384V392L284 388Z" fill="#ABABFA"/>
<path d="M304 388L300 384V392L304 388Z" fill="#ABABFA"/>
<path d="M324 388L320 384V392L324 388Z" fill="#ABABFA"/>
<path d="M344 388L340 384V392L344 388Z" fill="#ABABFA"/>
<path d="M364 388L360 384V392L364 388Z" fill="#ABABFA"/>
<path d="M384 388L380 384V392L384 388Z" fill="#ABABFA"/>
<path d="M404 388L400 384V392L404 388Z" fill="#ABABFA"/>            
        </symbol>
    </defs>
</svg>
